<svg id="Capa_1" enable-background="new 0 0 512.178 512.178" height="512" viewBox="0 0 512.178 512.178" width="512" xmlns="http://www.w3.org/2000/svg"><g><path d="m490.293 458.279h-468.408c-7.944 0-14.385-6.44-14.385-14.385v-226.107c0-7.944 6.44-14.385 14.385-14.385h468.408c7.944 0 14.385 6.44 14.385 14.385v226.107c0 7.944-6.441 14.385-14.385 14.385z" fill="#e2f6eb"/><path d="m504.679 217.785v226.11c0 7.94-6.44 14.38-14.39 14.38h-20c7.95 0 14.39-6.44 14.39-14.38v-226.11c0-7.94-6.44-14.38-14.39-14.38h20c7.95 0 14.39 6.44 14.39 14.38z" fill="#ceefdd"/><path d="m469.903 273.929v113.823c0 2.879-2.433 5.102-5.308 4.959-.512-.025-1.029-.038-1.548-.038-16.763 0-30.349 13.585-30.349 30.339v.052c.005 2.788-2.184 5.078-4.971 5.078h-343.276c-2.788 0-4.976-2.29-4.971-5.078 0-.017 0-.035 0-.052 0-16.754-13.585-30.339-30.349-30.339-.519 0-1.035.013-1.548.038-2.875.142-5.308-2.08-5.308-4.959v-113.823c0-2.879 2.433-5.102 5.308-4.959.512.025 1.029.038 1.548.038 16.763 0 30.349-13.585 30.349-30.339 0-.017 0-.035 0-.052-.005-2.788 2.184-5.078 4.971-5.078h343.276c2.788 0 4.976 2.29 4.971 5.078v.052c0 16.754 13.585 30.339 30.349 30.339.519 0 1.035-.013 1.548-.038 2.875-.142 5.308 2.08 5.308 4.959z" fill="#6ed5a1"/><path d="m469.899 273.925v113.83c0 2.88-2.43 5.1-5.3 4.96-.52-.03-1.03-.04-1.55-.04-16.77 0-30.35 13.58-30.35 30.34v.05c0 2.79-2.18 5.08-4.97 5.08h-19.62c2.79 0 4.98-2.29 4.97-5.08 0-.02.01-.04 0-.05-3.6-18.63 13.59-44.43 30.35-44.43.52 0 1.04.02 1.55.04 2.88.14 5.31-2.08 5.31-4.96v-88.671c0-2.88-2.43-5.1-5.31-4.96-.51.02-1.037.128-1.55.04-15.568-2.664-32.94-24.159-30.35-41.409.01-.01 0-.03 0-.05.01-2.79-2.18-5.08-4.97-5.08h19.62c2.79 0 4.97 2.29 4.97 5.08v.05c0 16.76 13.58 30.34 30.35 30.34.52 0 1.03-.01 1.55-.04 2.87-.14 5.3 2.09 5.3 4.96z" fill="#46cc8d"/><circle cx="256.089" cy="330.841" fill="#b0e7c9" r="71.638"/><path d="m327.729 330.845c0 39.56-32.08 71.63-71.64 71.63-15.05 0-29.01-4.64-40.54-12.57 7.53 2.7 15.64 4.16 24.09 4.16 39.57 0 71.64-32.08 71.64-71.64 0-24.51-12.3-46.14-31.07-59.05 27.7 9.89 47.52 36.36 47.52 67.47z" fill="#91deb6"/><path d="m480.398 155.049c0 10.923-9.79 20.166-12.99 30.022-3.317 10.215-.943 23.425-7.131 31.928-6.25 8.588-19.588 10.383-28.176 16.633-8.503 6.188-14.299 18.354-24.514 21.671-9.856 3.2-21.651-3.131-32.574-3.131s-22.717 6.331-32.573 3.131c-10.215-3.317-16.011-15.483-24.514-21.671-8.588-6.25-21.926-8.046-28.176-16.633-6.188-8.503-3.815-21.712-7.131-31.927-3.2-9.856-12.991-19.099-12.991-30.022s9.79-20.166 12.99-30.022c3.317-10.215.943-23.425 7.131-31.928 6.25-8.588 19.588-10.383 28.176-16.633 8.503-6.188 14.299-18.354 24.514-21.671 9.856-3.2 21.651 3.131 32.574 3.131s22.718-6.331 32.573-3.131c10.215 3.317 16.011 15.483 24.514 21.671 8.588 6.25 21.926 8.046 28.176 16.633 6.188 8.503 3.815 21.712 7.131 31.927 3.201 9.856 12.991 19.099 12.991 30.022z" fill="#fece85"/><path d="m480.399 155.045c0 10.93-9.79 20.17-12.99 30.03-3.32 10.21-.94 23.42-7.13 31.92-6.25 8.59-19.59 10.39-28.18 16.64-8.5 6.18-14.3 18.35-24.51 21.67-9.86 3.2-21.65-3.13-32.58-3.13-10.92 0-22.71 6.33-32.57 3.13-5.4-1.75-9.56-5.98-13.55-10.49 8.55.21 32.703-11.276 41.633-11.276 10.92 0 24.262 6.081 34.122 2.881 10.22-3.32 9.903-16.987 18.403-23.167 8.59-6.25 14.194-3.411 20.444-12.001 6.19-8.5.633-13.952 3.943-24.162 3.2-9.86 12.407-12.398 12.407-23.328 0-10.92-13.543-25.094-13.543-37.051 0-10.733 1.031-26.485-5.159-34.995-.14-.19-.28-.38-.44-.56 7.29 3.23 15.19 5.91 19.58 11.94 6.19 8.51 3.81 21.72 7.13 31.93 3.2 9.859 12.99 19.099 12.99 30.019z" fill="#fec165"/><g><g><path d="m226.935 362.893c9.765 0 17.709-7.944 17.709-17.708v-52.106c0-2.761-2.239-5-5-5s-5 2.239-5 5v52.106c0 4.25-3.458 7.708-7.709 7.708-4.25 0-7.708-3.458-7.708-7.708v-11.438c0-2.761-2.239-5-5-5s-5 2.239-5 5v11.438c-.001 9.764 7.943 17.708 17.708 17.708z"/><path d="m269.627 329.851c8.078 0 14.65-6.572 14.65-14.65v-.517c0-2.761-2.239-5-5-5s-5 2.239-5 5v.517c0 2.564-2.086 4.65-4.65 4.65s-4.65-2.086-4.65-4.65v-22.122c0-2.761-2.239-5-5-5s-5 2.239-5 5v22.121c0 8.078 6.572 14.651 14.65 14.651z"/><path d="m290.063 344.122c2.007 1.464 2.607 3.831 2.786 5.112.403 2.881-.4 6.019-2.096 8.19-3.842 4.92-10.938 6.409-16.292 6.149-2.745-.116-5.1 2-5.23 4.759-.13 2.758 2 5.1 4.759 5.23.586.027 1.167.041 1.747.041 9.475 0 17.945-3.68 22.899-10.024 3.354-4.296 4.894-10.176 4.118-15.729-.688-4.918-3.102-9.112-6.797-11.807-2.232-1.627-5.359-1.138-6.986 1.093-1.629 2.231-1.139 5.359 1.092 6.986z"/><ellipse cx="261.331" cy="344.907" rx="4.825" ry="4.825"/><ellipse cx="277.923" cy="344.877" rx="4.825" ry="4.825"/><path d="m256.089 409.979c43.637 0 79.138-35.501 79.138-79.138s-35.501-79.138-79.138-79.138-79.138 35.501-79.138 79.138 35.501 79.138 79.138 79.138zm0-143.276c35.366 0 64.138 28.772 64.138 64.138s-28.772 64.138-64.138 64.138-64.138-28.772-64.138-64.138 28.772-64.138 64.138-64.138z"/><path d="m490.293 195.902h-17.286c.32-3.115.726-6.027 1.534-8.515.989-3.047 2.989-6.373 5.106-9.893 3.868-6.432 8.251-13.721 8.251-22.445 0-8.715-4.42-16.07-7.972-21.98-2.132-3.55-6.741-4.699-10.292-2.565-3.55 2.133-4.699 6.741-2.565 10.292 3.413 5.679 5.829 10.026 5.829 14.254 0 4.562-2.966 9.493-6.106 14.715-2.458 4.087-5 8.313-6.518 12.991-1.581 4.87-2.044 9.913-2.492 14.791-.548 5.964-1.065 11.598-3.57 15.04-2.548 3.501-7.773 5.735-13.304 8.1-4.484 1.917-9.12 3.898-13.22 6.883-4.046 2.944-7.323 6.712-10.492 10.357-3.971 4.566-7.722 8.88-11.925 10.245-3.926 1.273-9.384.04-15.161-1.268-4.847-1.096-9.858-2.23-15.096-2.23s-10.25 1.134-15.096 2.23c-5.778 1.308-11.235 2.542-15.161 1.268-4.203-1.365-7.954-5.678-11.925-10.245-3.169-3.645-6.446-7.413-10.491-10.357-4.101-2.984-8.737-4.966-13.221-6.883-5.532-2.365-10.757-4.598-13.305-8.1-2.505-3.441-3.022-9.075-3.57-15.039-.448-4.877-.911-9.921-2.493-14.792-1.519-4.676-4.06-8.903-6.518-12.99-3.14-5.222-6.106-10.154-6.106-14.716s2.966-9.494 6.106-14.716c2.458-4.087 4.999-8.313 6.518-12.99 1.582-4.87 2.044-9.914 2.493-14.792.548-5.964 1.065-11.598 3.569-15.039 2.549-3.502 7.774-5.735 13.306-8.1 4.483-1.917 9.119-3.898 13.22-6.882 4.045-2.944 7.322-6.712 10.491-10.356 3.971-4.567 7.723-8.88 11.926-10.245 3.924-1.275 9.383-.04 15.161 1.268 4.847 1.096 9.858 2.23 15.096 2.23s10.25-1.134 15.096-2.23c5.777-1.307 11.235-2.542 15.161-1.268 4.203 1.365 7.954 5.678 11.925 10.245 3.169 3.644 6.446 7.413 10.492 10.356 4.1 2.984 8.736 4.966 13.219 6.882 5.532 2.365 10.757 4.598 13.306 8.101 1.281 1.76 2.15 4.23 2.736 7.774.675 4.087 4.533 6.85 8.623 6.176 4.086-.675 6.852-4.536 6.176-8.623-.981-5.937-2.699-10.435-5.407-14.155-4.98-6.844-12.714-10.15-19.538-13.066-3.888-1.662-7.56-3.232-10.289-5.218-2.669-1.943-5.258-4.92-7.999-8.071-4.899-5.634-10.452-12.02-18.612-14.669-7.848-2.549-15.953-.714-23.104.904-4.229.957-8.224 1.86-11.786 1.86s-7.557-.904-11.787-1.86c-7.151-1.619-15.257-3.453-23.103-.904-8.16 2.649-13.713 9.035-18.612 14.669-2.741 3.152-5.329 6.128-7.999 8.071-2.729 1.986-6.401 3.556-10.289 5.218-6.824 2.917-14.558 6.223-19.538 13.066-4.936 6.782-5.702 15.129-6.378 22.493-.39 4.245-.758 8.254-1.822 11.531-.989 3.047-2.989 6.373-5.106 9.893-3.867 6.432-8.251 13.722-8.251 22.446s4.384 16.014 8.251 22.446c2.117 3.52 4.117 6.845 5.106 9.893.808 2.488 1.214 5.4 1.534 8.515h-255.134c-12.068-.001-21.885 9.817-21.885 21.884v226.107c0 12.067 9.817 21.884 21.885 21.884h468.408c12.067 0 21.885-9.817 21.885-21.884v-226.107c0-12.067-9.818-21.885-21.885-21.885zm6.885 247.992c0 3.796-3.088 6.884-6.885 6.884h-468.408c-3.796 0-6.885-3.088-6.885-6.884v-226.107c0-3.796 3.088-6.885 6.885-6.885h257.144c.9 3.675 2.3 7.271 4.657 10.509 1.281 1.76 2.745 3.282 4.327 4.627h-203.562c-3.323 0-6.446 1.295-8.793 3.647-2.377 2.381-3.684 5.558-3.678 8.983 0 12.913-11.159 23.437-24.026 22.81-3.441-.172-6.838 1.087-9.32 3.449-2.488 2.369-3.858 5.565-3.858 9.001v21.025c0 4.142 3.358 7.5 7.5 7.5s7.5-3.358 7.5-7.5v-18.452c19.762-.332 35.886-15.88 37.128-35.463h228.261c2.097 1.851 4.175 4.23 6.347 6.729 4.899 5.634 10.452 12.019 18.611 14.668 2.809.912 5.651 1.263 8.47 1.263 5.057 0 10.042-1.128 14.633-2.167 4.229-.957 8.224-1.86 11.787-1.86s7.557.904 11.787 1.86c7.151 1.618 15.258 3.453 23.104.904 7.245-2.352 12.433-7.65 16.935-12.752 4.67 15.312 18.808 26.537 35.565 26.818v108.676c-19.762.332-35.886 15.881-37.128 35.464h-338.37c-1.215-19.553-17.351-35.132-37.132-35.464v-55.607c0-4.142-3.358-7.5-7.5-7.5s-7.5 3.358-7.5 7.5v58.182c0 3.437 1.37 6.633 3.858 9.001 2.481 2.361 5.877 3.616 9.322 3.449 12.777-.621 24.025 9.858 24.025 22.849-.006 3.386 1.3 6.563 3.678 8.944 2.348 2.352 5.471 3.647 8.793 3.647h343.276c3.322 0 6.445-1.295 8.792-3.646 2.377-2.381 3.684-5.558 3.679-8.984 0-12.923 11.183-23.445 24.027-22.81 3.438.17 6.838-1.087 9.32-3.449 2.488-2.369 3.858-5.565 3.858-9.001v-113.823c0-3.437-1.37-6.633-3.858-9.001-2.481-2.361-5.878-3.617-9.321-3.449-6.879.337-12.643-1.851-17.551-6.902-4.124-4.244-6.484-10.028-6.474-15.949.001-.376-.032-.745-.064-1.114 2.037-1.053 4.311-2.029 6.668-3.036 6.823-2.917 14.557-6.222 19.537-13.066 2.357-3.238 3.757-6.835 4.657-10.509h19.296c3.796 0 6.885 3.088 6.885 6.885v226.106z"/><path d="m340.829 168.127-4.255 9.305c-1.148 2.511-.044 5.478 2.467 6.626.674.309 1.381.454 2.077.454 1.896 0 3.71-1.084 4.55-2.921l4.255-9.305c1.148-2.511.044-5.478-2.467-6.626-2.512-1.148-5.479-.043-6.627 2.467z"/><path d="m371.335 167.648c-2.375.048-4.516-1.196-5.664-3.244-1.35-2.409-4.397-3.267-6.806-1.917s-3.267 4.397-1.917 6.806c2.901 5.177 8.341 8.355 14.254 8.355.111 0 .223-.001.334-.003 8.517-.171 15.534-6.965 15.976-15.467.235-4.525-1.352-8.824-4.466-12.105-3.071-3.234-7.388-5.089-11.844-5.089-.542 0-1.055.012-1.542.036l.827-4.994h9.681c2.761 0 5-2.239 5-5s-2.239-5-5-5h-13.921c-2.446 0-4.533 1.77-4.933 4.183l-2.758 16.646c-.308 1.857.466 3.724 1.982 4.839 1.516 1.116 3.544 1.278 5.224.432.033-.017.124-.061.258-.122 1.409-.634 2.46-1.019 5.181-1.019 1.752 0 3.383.701 4.592 1.975 1.208 1.272 1.823 2.942 1.732 4.701-.17 3.291-2.889 5.921-6.19 5.987z"/><path d="m314.292 150.963c-5.86 8.373-9.355 12.95-11.233 15.409-2.341 3.065-3.63 4.753-2.793 7.475.498 1.618 1.72 2.858 3.354 3.403.665.221 1.228.409 8.51.409 2.844 0 6.714-.028 12.015-.095 2.761-.035 4.971-2.301 4.937-5.063-.035-2.762-2.305-5-5.063-4.937-3.147.04-6.465.068-9.396.079 1.966-2.653 4.545-6.206 7.863-10.947 2.427-3.468 4.013-6.759 4.713-9.781.271-1.039.312-2.35.312-2.562 0-7.985-6.496-14.481-14.48-14.481-6.904 0-12.88 4.912-14.209 11.679-.532 2.709 1.232 5.338 3.942 5.87 2.706.533 5.338-1.232 5.87-3.942.411-2.09 2.26-3.607 4.397-3.607 2.383 0 4.338 1.871 4.473 4.221l-.1.78c-.322 1.242-1.127 3.254-3.112 6.09z"/><path d="m413.344 178.232c.606.241 1.231.355 1.847.355 1.988 0 3.868-1.194 4.647-3.153l15.709-39.496c1.021-2.566-.232-5.474-2.798-6.494-2.565-1.019-5.473.232-6.494 2.798l-15.709 39.496c-1.021 2.566.232 5.474 2.798 6.494z"/><circle cx="407.43" cy="138.222" r="7.635"/><circle cx="438.663" cy="169.455" r="7.635"/></g></g></g></svg>