<svg xmlns="http://www.w3.org/2000/svg" xmlns:xlink="http://www.w3.org/1999/xlink" width="1779.214" height="451.426" viewBox="0 0 1779.214 451.426"><defs><linearGradient id="a" x1="0.475" y1="-5.124" x2="0.497" y2="-5.124" gradientUnits="objectBoundingBox"><stop offset="0" stop-color="#a5a7aa"/><stop offset="1" stop-color="#fff" stop-opacity="0"/></linearGradient><linearGradient id="b" x1="0" y1="0.501" x2="0.988" y2="0.501" xlink:href="#a"/><linearGradient id="c" x1="0" y1="0.501" x2="0.988" y2="0.501" xlink:href="#a"/><linearGradient id="d" x1="-0.001" y1="0.501" x2="0.987" y2="0.501" xlink:href="#a"/><linearGradient id="e" x1="0" y1="0.501" x2="0.988" y2="0.501" xlink:href="#a"/><linearGradient id="f" x1="0" y1="0.501" x2="0.989" y2="0.501" xlink:href="#a"/><linearGradient id="g" x1="0.001" y1="0.501" x2="0.989" y2="0.501" xlink:href="#a"/><linearGradient id="h" x1="0" y1="0.501" x2="0.988" y2="0.501" xlink:href="#a"/></defs><g transform="translate(-61.486 -401.574)"><text transform="translate(136.96 713.372)" fill="#977dd1" font-size="20" font-family="SegoeUI, Segoe UI"><tspan x="0" y="0">1982 - 1984</tspan></text><text transform="translate(61.486 423.574)" fill="#977dd1" font-size="20" font-family="SegoeUI, Segoe UI"><tspan x="0" y="0">Drs. Moch Rukasah Suradimadja (Alm)</tspan></text><text transform="translate(316.96 554.531)" fill="#00bbea" font-size="20" font-family="SegoeUI, Segoe UI"><tspan x="0" y="0">1984 - 1988</tspan></text><text transform="translate(310 848)" fill="#00bbea" font-size="20" font-family="SegoeUI, Segoe UI"><tspan x="0" y="0">Drs. H.M.I Tamdjid</tspan></text><path d="M98.7,690.3V651.6H1824v38.7Z" fill="url(#a)"/><path d="M287.6,652.1H95.3l15-24.1-15-25.3H287.6Z" fill="#977dd1"/><rect width="192.4" height="49.4" transform="translate(287.3 602.7)" fill="#00bbea"/><rect width="192.4" height="49.4" transform="translate(479.4 602.7)" fill="#009590"/><rect width="192.4" height="49.4" transform="translate(671.5 602.7)" fill="#ffb400"/><path d="M1055.9,652.1H863.5V602.7h192.4l17.2,26Z" fill="#ff9125"/><rect width="45.8" height="49.1" transform="translate(287.3 602.7)" fill="url(#b)"/><rect width="45.8" height="49.1" transform="translate(479.4 602.7)" fill="url(#c)"/><rect width="45.8" height="49.1" transform="translate(671.5 602.7)" fill="url(#d)"/><rect width="45.8" height="49.1" transform="translate(863.5 602.7)" fill="url(#e)"/><path d="M1823.5,652.1H1631.1V602.7h192.4l17.2,26Z" fill="#ff9125"/><path d="M1247.1,652.1H1054.8l15.1-24.1-15.1-25.3h192.3Z" fill="#977dd1"/><rect width="192.4" height="49.4" transform="translate(1246.9 602.7)" fill="#00bbea"/><rect width="192.4" height="49.4" transform="translate(1438.9 602.7)" fill="#009590"/><rect width="45.8" height="49.1" transform="translate(1246.8 602.7)" fill="url(#f)"/><rect width="45.8" height="49.1" transform="translate(1438.9 602.7)" fill="url(#g)"/><rect width="45.8" height="49.1" transform="translate(1631 602.7)" fill="url(#h)"/><circle cx="47.1" cy="47.1" r="47.1" transform="translate(121.562 598.807) rotate(-22.5)" fill="#977dd1"/><path d="M183.1,578.7a45.6,45.6,0,1,1-45.6,45.6,45.58,45.58,0,0,1,45.6-45.6m0-3a48.6,48.6,0,1,0,48.6,48.6,48.653,48.653,0,0,0-48.6-48.6Z" fill="#fff"/><circle cx="27.4" cy="27.4" r="27.4" transform="translate(155.7 596.9)" fill="#fff"/><path d="M1342.2,671.2a47.346,47.346,0,0,1-47.1-46.3,46.817,46.817,0,0,1,13.2-33.5,47.345,47.345,0,0,1,33.1-14.4h.8a47.346,47.346,0,0,1,47.1,46.3,46.817,46.817,0,0,1-13.2,33.5,47.529,47.529,0,0,1-33.1,14.4Z" fill="#00bbea"/><path d="M1342.2,578.5a45.653,45.653,0,0,1,.7,91.3h-.8a45.653,45.653,0,0,1-.7-91.3h.8m0-3v0h-.8a48.6,48.6,0,0,0,.8,97.2h.8a48.6,48.6,0,0,0-.8-97.2Z" fill="#fff"/><circle cx="27.4" cy="27.4" r="27.4" transform="translate(1314.8 596.7)" fill="#fff"/><line x1="2.3" y1="132.1" transform="translate(1339.2 451.9)" fill="none" stroke="#00bbea" stroke-miterlimit="10" stroke-width="2"/><circle cx="11.2" cy="11.2" r="11.2" transform="translate(1328 440.7)" fill="#00bbea"/><circle cx="47.1" cy="47.1" r="47.1" transform="translate(336.9 578.2)" fill="#00bbea"/><path d="M384,579.7a45.6,45.6,0,1,1-45.6,45.6A45.58,45.58,0,0,1,384,579.7m0-3a48.6,48.6,0,1,0,48.6,48.6A48.653,48.653,0,0,0,384,576.7Z" fill="#fff"/><circle cx="27.4" cy="27.4" r="27.4" transform="translate(356.6 597.9)" fill="#fff"/><text transform="translate(377.137 635.949)" fill="#00bbea" font-size="31.55" font-family="SegoeUI, Segoe UI"><tspan x="0" y="0">2</tspan></text><line y2="132.1" transform="translate(384 667.4)" fill="none" stroke="#00bbea" stroke-miterlimit="10" stroke-width="2"/><circle cx="11.2" cy="11.2" r="11.2" transform="translate(372.8 788.3)" fill="#00bbea"/><circle cx="47.1" cy="47.1" r="47.1" transform="translate(528.5 581.2)" fill="#009590"/><path d="M575.6,582.7A45.6,45.6,0,1,1,530,628.3a45.58,45.58,0,0,1,45.6-45.6m0-3a48.6,48.6,0,1,0,48.6,48.6,48.653,48.653,0,0,0-48.6-48.6Z" fill="#fff"/><circle cx="27.4" cy="27.4" r="27.4" transform="translate(548.2 600.9)" fill="#fff"/><text transform="translate(569.321 638.602)" fill="#009590" font-size="31.55" font-family="SegoeUI, Segoe UI"><tspan x="0" y="0">3</tspan></text><text transform="translate(502 424)" fill="#009590" font-size="20" font-family="SegoeUI, Segoe UI"><tspan x="0" y="0">Drs. Abdul Wachyan</tspan></text><text transform="translate(514.96 713.531)" fill="#009590" font-size="20" font-family="SegoeUI, Segoe UI"><tspan x="0" y="0">1988 - 1991</tspan></text><path d="M767.6,669.4a47.1,47.1,0,1,1,47.1-47.1A47.116,47.116,0,0,1,767.6,669.4Z" fill="#ffb400"/><path d="M767.6,576.7A45.6,45.6,0,1,1,722,622.3a45.58,45.58,0,0,1,45.6-45.6m0-3a48.6,48.6,0,1,0,48.6,48.6,48.653,48.653,0,0,0-48.6-48.6Z" fill="#fff"/><circle cx="27.4" cy="27.4" r="27.4" transform="translate(740.2 594.9)" fill="#fff"/><text transform="translate(761.194 632.949)" fill="#ffb400" font-size="31.55" font-family="SegoeUI, Segoe UI"><tspan x="0" y="0">4</tspan></text><line y2="132.1" transform="translate(767.6 664.4)" fill="none" stroke="#ffb400" stroke-miterlimit="10" stroke-width="2"/><circle cx="11.2" cy="11.2" r="11.2" transform="translate(756.4 785.3)" fill="#ffb400"/><text transform="translate(704.96 554.531)" fill="#ffb400" font-size="20" font-family="SegoeUI, Segoe UI"><tspan x="0" y="0">1991 - 1992</tspan></text><path d="M961.3,675.4a47.1,47.1,0,1,1,47.1-47.1A47.116,47.116,0,0,1,961.3,675.4Z" fill="#ff9125"/><path d="M961.3,582.7a45.6,45.6,0,1,1-45.6,45.6,45.58,45.58,0,0,1,45.6-45.6m0-3a48.6,48.6,0,1,0,48.6,48.6,48.653,48.653,0,0,0-48.6-48.6Z" fill="#fff"/><circle cx="27.4" cy="27.4" r="27.4" transform="translate(933.9 600.9)" fill="#fff"/><text transform="translate(954.4 638.949)" fill="#ff9125" font-size="31.55" font-family="SegoeUI, Segoe UI"><tspan x="0" y="0">5</tspan></text><path d="M1145.9,676.9a47.224,47.224,0,0,1-32.9-13.4,47.106,47.106,0,0,1,31.8-80.8h1.2a47.224,47.224,0,0,1,32.9,13.4,47.106,47.106,0,0,1-31.8,80.8Z" fill="#977dd1"/><path d="M1145.9,584.1a45.607,45.607,0,0,1,1.1,91.2h-1.1a45.607,45.607,0,0,1-1.1-91.2h1.1m0-3v0h-1.2a48.608,48.608,0,0,0,1.2,97.2h1.2a48.666,48.666,0,0,0,47.4-49.8,48.67,48.67,0,0,0-48.6-47.4Z" fill="#fff"/><circle cx="27.4" cy="27.4" r="27.4" transform="translate(1118.5 602.3)" fill="#fff"/><line x2="2" y2="121.6" transform="translate(1147 674.4)" fill="none" stroke="#977dd1" stroke-miterlimit="10" stroke-width="2"/><circle cx="11.2" cy="11.2" r="11.2" transform="translate(1137.9 784.5)" fill="#977dd1"/><text transform="translate(1137.4 639.949)" fill="#977dd1" font-size="31.55" font-family="SegoeUI, Segoe UI"><tspan x="0" y="0">6</tspan></text><text transform="translate(1336.137 635.949)" fill="#00bbea" font-size="31.55" font-family="SegoeUI, Segoe UI"><tspan x="0" y="0">7</tspan></text><path d="M1535.6,672.8a47.1,47.1,0,1,1,47.1-47.1A47.116,47.116,0,0,1,1535.6,672.8Z" fill="#009590"/><path d="M1535.6,580.1a45.6,45.6,0,1,1-45.6,45.6,45.58,45.58,0,0,1,45.6-45.6m0-3a48.6,48.6,0,1,0,48.6,48.6,48.653,48.653,0,0,0-48.6-48.6Z" fill="#fff"/><circle cx="27.4" cy="27.4" r="27.4" transform="translate(1508.2 598.3)" fill="#fff"/><text transform="translate(1527.321 634.602)" fill="#009590" font-size="31.55" font-family="SegoeUI, Segoe UI"><tspan x="0" y="0">8</tspan></text><circle cx="47.1" cy="47.1" r="47.1" transform="translate(1689.2 578.2)" fill="#ff9125"/><path d="M1736.3,579.7a45.6,45.6,0,1,1-45.6,45.6,45.58,45.58,0,0,1,45.6-45.6m0-3a48.6,48.6,0,1,0,48.6,48.6,48.653,48.653,0,0,0-48.6-48.6Z" fill="#fff"/><circle cx="27.4" cy="27.4" r="27.4" transform="translate(1708.9 597.9)" fill="#fff"/><text transform="translate(1727.4 634.949)" fill="#ff9125" font-size="31.55" font-family="SegoeUI, Segoe UI"><tspan x="0" y="0">9</tspan></text><text transform="translate(893.96 713.531)" fill="#ff9125" font-size="20" font-family="SegoeUI, Segoe UI"><tspan x="0" y="0">1992 - 1996</tspan></text><text transform="translate(1085.96 557.531)" fill="#977dd1" font-size="20" font-family="SegoeUI, Segoe UI"><tspan x="0" y="0">1996 - 1997</tspan></text><text transform="translate(1280.96 713.531)" fill="#00bbea" font-size="20" font-family="SegoeUI, Segoe UI"><tspan x="0" y="0">1997 - 1999</tspan></text><text transform="translate(1468.96 557.531)" fill="#009590" font-size="20" font-family="SegoeUI, Segoe UI"><tspan x="0" y="0">1999 - 2017</tspan></text><line x2="2" y2="121.6" transform="translate(1533 674.4)" fill="none" stroke="#009590" stroke-miterlimit="10" stroke-width="2"/><circle cx="11.2" cy="11.2" r="11.2" transform="translate(1523.9 784.5)" fill="#009590"/><line x1="2.3" y1="132.1" transform="translate(961.2 453.9)" fill="none" stroke="#ff9125" stroke-miterlimit="10" stroke-width="2"/><circle cx="11.2" cy="11.2" r="11.2" transform="translate(950 442.7)" fill="#ff9125"/><line x1="2.3" y1="132.1" transform="translate(575.2 455.9)" fill="none" stroke="#009590" stroke-miterlimit="10" stroke-width="2"/><circle cx="11.2" cy="11.2" r="11.2" transform="translate(564 444.7)" fill="#009590"/><line x1="2.3" y1="132.1" transform="translate(1730.2 453.9)" fill="none" stroke="#ff9125" stroke-miterlimit="10" stroke-width="2"/><circle cx="11.2" cy="11.2" r="11.2" transform="translate(1719 442.7)" fill="#ff9125"/><line x1="2.3" y1="132.1" transform="translate(183.2 450.9)" fill="#8e8e8e" stroke="#977dd1" stroke-miterlimit="10" stroke-width="2"/><circle cx="11.2" cy="11.2" r="11.2" transform="translate(172 439.7)" fill="#8e8e8e"/><text transform="translate(174.194 634.949)" fill="#977dd1" font-size="31.55" font-family="SegoeUI, Segoe UI"><tspan x="0" y="0">1</tspan></text><text transform="translate(683 848)" fill="#ffb400" font-size="20" font-family="SegoeUI, Segoe UI"><tspan x="0" y="0">Drs. Moch. Masduki</tspan></text><text transform="translate(852 424)" fill="#ff9125" font-size="20" font-family="SegoeUI, Segoe UI"><tspan x="0" y="0">Drs. H.Sofyan Safari Hamim</tspan></text><text transform="translate(1073 848)" fill="#977dd1" font-size="20" font-family="SegoeUI, Segoe UI"><tspan x="0" y="0">Drs. H. Yuyun WS</tspan></text><text transform="translate(1266 424)" fill="#00bbea" font-size="20" font-family="SegoeUI, Segoe UI"><tspan x="0" y="0">H. Badrul Kamal</tspan></text><text transform="translate(1439 848)" fill="#009590" font-size="20" font-family="SegoeUI, Segoe UI"><tspan x="0" y="0">H. Nur Mahmudi Ismail</tspan></text><text transform="translate(1631 424)" fill="#ff9125" font-size="20" font-family="SegoeUI, Segoe UI"><tspan x="0" y="0">K.H. Muhammad Idris</tspan></text><text transform="translate(108 770)" fill="#977dd1" font-size="36" font-family="SegoeUI, Segoe UI"><tspan x="0" y="0">Walikotatif</tspan></text><text transform="translate(491 770)" fill="#009590" font-size="36" font-family="SegoeUI, Segoe UI"><tspan x="0" y="0">Walikotatif</tspan></text><text transform="translate(876 770)" fill="#ff9125" font-size="36" font-family="SegoeUI, Segoe UI"><tspan x="0" y="0">Walikotatif</tspan></text><text transform="translate(1266 770)" fill="#00bbea" font-size="36" font-family="SegoeUI, Segoe UI"><tspan x="0" y="0">Walikotatif</tspan></text><text transform="translate(1651 770)" fill="#ff9125" font-size="36" font-family="SegoeUI, Segoe UI"><tspan x="0" y="0">Walikotatif</tspan></text><text transform="translate(1653.96 713.531)" fill="#ff9125" font-size="20" font-family="SegoeUI, Segoe UI"><tspan x="0" y="0">2017 - Sekarang</tspan></text><text transform="translate(1462 517)" fill="#009590" font-size="36" font-family="SegoeUI, Segoe UI"><tspan x="0" y="0">Walikotatif</tspan></text><text transform="translate(1073 517)" fill="#977dd1" font-size="36" font-family="SegoeUI, Segoe UI"><tspan x="0" y="0">Walikotatif</tspan></text><text transform="translate(694 522)" fill="#ffb400" font-size="36" font-family="SegoeUI, Segoe UI"><tspan x="0" y="0">Walikotatif</tspan></text><text transform="translate(310 517)" fill="#00bbea" font-size="36" font-family="SegoeUI, Segoe UI"><tspan x="0" y="0">Walikotatif</tspan></text></g></svg>